<svg width="100" height="20" viewBox="0 0 100 20" fill="none" xmlns="http://www.w3.org/2000/svg">
<path d="M9.65416 1.06438C9.76302 0.72936 10.237 0.72936 10.3458 1.06438L12.1635 6.65856C12.2122 6.80839 12.3518 6.90983 12.5093 6.90983H18.3914C18.7437 6.90983 18.8901 7.3606 18.6051 7.56765L13.8465 11.025C13.719 11.1176 13.6657 11.2818 13.7144 11.4316L15.532 17.0258C15.6409 17.3608 15.2574 17.6394 14.9724 17.4323L10.2137 13.975C10.0863 13.8824 9.91371 13.8824 9.78626 13.975L5.02757 17.4323C4.74258 17.6394 4.35913 17.3608 4.46799 17.0258L6.28565 11.4316C6.33433 11.2818 6.281 11.1176 6.15355 11.025L1.39485 7.56765C1.10987 7.3606 1.25633 6.90983 1.60859 6.90983H7.49066C7.6482 6.90983 7.78782 6.80839 7.8365 6.65856L9.65416 1.06438Z" fill="#EAB308"/>
<path d="M29.6542 1.06438C29.763 0.72936 30.237 0.72936 30.3458 1.06438L32.1635 6.65856C32.2122 6.80839 32.3518 6.90983 32.5093 6.90983H38.3914C38.7437 6.90983 38.8901 7.3606 38.6051 7.56765L33.8465 11.025C33.719 11.1176 33.6657 11.2818 33.7144 11.4316L35.532 17.0258C35.6409 17.3608 35.2574 17.6394 34.9724 17.4323L30.2137 13.975C30.0863 13.8824 29.9137 13.8824 29.7863 13.975L25.0276 17.4323C24.7426 17.6394 24.3591 17.3608 24.468 17.0258L26.2856 11.4316C26.3343 11.2818 26.281 11.1176 26.1535 11.025L21.3949 7.56765C21.1099 7.3606 21.2563 6.90983 21.6086 6.90983H27.4907C27.6482 6.90983 27.7878 6.80839 27.8365 6.65856L29.6542 1.06438Z" fill="#EAB308"/>
<path d="M49.6542 1.06438C49.763 0.72936 50.237 0.72936 50.3458 1.06438L52.1635 6.65856C52.2122 6.80839 52.3518 6.90983 52.5093 6.90983H58.3914C58.7437 6.90983 58.8901 7.3606 58.6051 7.56765L53.8465 11.025C53.719 11.1176 53.6657 11.2818 53.7144 11.4316L55.532 17.0258C55.6409 17.3608 55.2574 17.6394 54.9724 17.4323L50.2137 13.975C50.0863 13.8824 49.9137 13.8824 49.7863 13.975L45.0276 17.4323C44.7426 17.6394 44.3591 17.3608 44.468 17.0258L46.2856 11.4316C46.3343 11.2818 46.281 11.1176 46.1535 11.025L41.3949 7.56765C41.1099 7.3606 41.2563 6.90983 41.6086 6.90983H47.4907C47.6482 6.90983 47.7878 6.80839 47.8365 6.65856L49.6542 1.06438Z" fill="#CBD5E1"/>
<path d="M69.6542 1.06438C69.763 0.72936 70.237 0.72936 70.3458 1.06438L72.1635 6.65856C72.2122 6.80839 72.3518 6.90983 72.5093 6.90983H78.3914C78.7437 6.90983 78.8901 7.3606 78.6051 7.56765L73.8465 11.025C73.719 11.1176 73.6657 11.2818 73.7144 11.4316L75.532 17.0258C75.6409 17.3608 75.2574 17.6394 74.9724 17.4323L70.2137 13.975C70.0863 13.8824 69.9137 13.8824 69.7863 13.975L65.0276 17.4323C64.7426 17.6394 64.3591 17.3608 64.468 17.0258L66.2856 11.4316C66.3343 11.2818 66.281 11.1176 66.1535 11.025L61.3949 7.56765C61.1099 7.3606 61.2563 6.90983 61.6086 6.90983H67.4907C67.6482 6.90983 67.7878 6.80839 67.8365 6.65856L69.6542 1.06438Z" fill="#CBD5E1"/>
<path d="M89.6542 1.06438C89.763 0.72936 90.237 0.72936 90.3458 1.06438L92.1635 6.65856C92.2122 6.80839 92.3518 6.90983 92.5093 6.90983H98.3914C98.7437 6.90983 98.8901 7.3606 98.6051 7.56765L93.8465 11.025C93.719 11.1176 93.6657 11.2818 93.7144 11.4316L95.532 17.0258C95.6409 17.3608 95.2574 17.6394 94.9724 17.4323L90.2137 13.975C90.0863 13.8824 89.9137 13.8824 89.7863 13.975L85.0276 17.4323C84.7426 17.6394 84.3591 17.3608 84.468 17.0258L86.2856 11.4316C86.3343 11.2818 86.281 11.1176 86.1535 11.025L81.3949 7.56765C81.1099 7.3606 81.2563 6.90983 81.6086 6.90983H87.4907C87.6482 6.90983 87.7878 6.80839 87.8365 6.65856L89.6542 1.06438Z" fill="#CBD5E1"/>
</svg>
