<svg width="101" height="20" viewBox="0 0 101 20" fill="none" xmlns="http://www.w3.org/2000/svg">
<path d="M10.1542 1.06438C10.263 0.72936 10.737 0.72936 10.8458 1.06438L12.6635 6.65856C12.7122 6.80839 12.8518 6.90983 13.0093 6.90983H18.8914C19.2437 6.90983 19.3901 7.3606 19.1051 7.56765L14.3465 11.025C14.219 11.1176 14.1657 11.2818 14.2144 11.4316L16.032 17.0258C16.1409 17.3608 15.7574 17.6394 15.4724 17.4323L10.7137 13.975C10.5863 13.8824 10.4137 13.8824 10.2863 13.975L5.52757 17.4323C5.24258 17.6394 4.85913 17.3608 4.96799 17.0258L6.78565 11.4316C6.83433 11.2818 6.781 11.1176 6.65355 11.025L1.89485 7.56765C1.60987 7.3606 1.75633 6.90983 2.10859 6.90983H7.99066C8.1482 6.90983 8.28782 6.80839 8.3365 6.65856L10.1542 1.06438Z" fill="#EAB308"/>
<path d="M30.1542 1.06438C30.263 0.72936 30.737 0.72936 30.8458 1.06438L32.6635 6.65856C32.7122 6.80839 32.8518 6.90983 33.0093 6.90983H38.8914C39.2437 6.90983 39.3901 7.3606 39.1051 7.56765L34.3465 11.025C34.219 11.1176 34.1657 11.2818 34.2144 11.4316L36.032 17.0258C36.1409 17.3608 35.7574 17.6394 35.4724 17.4323L30.7137 13.975C30.5863 13.8824 30.4137 13.8824 30.2863 13.975L25.5276 17.4323C25.2426 17.6394 24.8591 17.3608 24.968 17.0258L26.7856 11.4316C26.8343 11.2818 26.781 11.1176 26.6535 11.025L21.8949 7.56765C21.6099 7.3606 21.7563 6.90983 22.1086 6.90983H27.9907C28.1482 6.90983 28.2878 6.80839 28.3365 6.65856L30.1542 1.06438Z" fill="#EAB308"/>
<path d="M50.1542 1.06438C50.263 0.72936 50.737 0.72936 50.8458 1.06438L52.6635 6.65856C52.7122 6.80839 52.8518 6.90983 53.0093 6.90983H58.8914C59.2437 6.90983 59.3901 7.3606 59.1051 7.56765L54.3465 11.025C54.219 11.1176 54.1657 11.2818 54.2144 11.4316L56.032 17.0258C56.1409 17.3608 55.7574 17.6394 55.4724 17.4323L50.7137 13.975C50.5863 13.8824 50.4137 13.8824 50.2863 13.975L45.5276 17.4323C45.2426 17.6394 44.8591 17.3608 44.968 17.0258L46.7856 11.4316C46.8343 11.2818 46.781 11.1176 46.6535 11.025L41.8949 7.56765C41.6099 7.3606 41.7563 6.90983 42.1086 6.90983H47.9907C48.1482 6.90983 48.2878 6.80839 48.3365 6.65856L50.1542 1.06438Z" fill="#EAB308"/>
<path d="M70.1542 1.06438C70.263 0.72936 70.737 0.72936 70.8458 1.06438L72.6635 6.65856C72.7122 6.80839 72.8518 6.90983 73.0093 6.90983H78.8914C79.2437 6.90983 79.3901 7.3606 79.1051 7.56765L74.3465 11.025C74.219 11.1176 74.1657 11.2818 74.2144 11.4316L76.032 17.0258C76.1409 17.3608 75.7574 17.6394 75.4724 17.4323L70.7137 13.975C70.5863 13.8824 70.4137 13.8824 70.2863 13.975L65.5276 17.4323C65.2426 17.6394 64.8591 17.3608 64.968 17.0258L66.7856 11.4316C66.8343 11.2818 66.781 11.1176 66.6535 11.025L61.8949 7.56765C61.6099 7.3606 61.7563 6.90983 62.1086 6.90983H67.9907C68.1482 6.90983 68.2878 6.80839 68.3365 6.65856L70.1542 1.06438Z" fill="#EAB308"/>
<path d="M90.1542 1.06438C90.263 0.72936 90.737 0.72936 90.8458 1.06438L92.6635 6.65856C92.7122 6.80839 92.8518 6.90983 93.0093 6.90983H98.8914C99.2437 6.90983 99.3901 7.3606 99.1051 7.56765L94.3465 11.025C94.219 11.1176 94.1657 11.2818 94.2144 11.4316L96.032 17.0258C96.1409 17.3608 95.7574 17.6394 95.4724 17.4323L90.7137 13.975C90.5863 13.8824 90.4137 13.8824 90.2863 13.975L85.5276 17.4323C85.2426 17.6394 84.8591 17.3608 84.968 17.0258L86.7856 11.4316C86.8343 11.2818 86.781 11.1176 86.6535 11.025L81.8949 7.56765C81.6099 7.3606 81.7563 6.90983 82.1086 6.90983H87.9907C88.1482 6.90983 88.2878 6.80839 88.3365 6.65856L90.1542 1.06438Z" fill="#EAB308"/>
</svg>
