<svg width="96" height="21" viewBox="0 0 96 21" fill="none" xmlns="http://www.w3.org/2000/svg">
<path d="M9.9299 15.2025L13.7099 17.6025C14.1974 17.91 14.7974 17.4525 14.6549 16.89L13.5599 12.585C13.5303 12.4657 13.535 12.3404 13.5735 12.2237C13.612 12.1069 13.6826 12.0034 13.7774 11.925L17.1674 9.09752C17.6099 8.73002 17.3849 7.98752 16.8074 7.95002L12.3824 7.66502C12.2617 7.65799 12.1456 7.61595 12.0484 7.54403C11.9511 7.4721 11.877 7.37341 11.8349 7.26002L10.1849 3.10502C10.1412 2.98495 10.0617 2.88122 9.957 2.80793C9.85234 2.73463 9.72767 2.69531 9.5999 2.69531C9.47213 2.69531 9.34745 2.73463 9.2428 2.80793C9.13814 2.88122 9.05858 2.98495 9.0149 3.10502L7.3649 7.26002C7.32285 7.37341 7.24867 7.4721 7.15144 7.54403C7.05421 7.61595 6.93814 7.65799 6.8174 7.66502L2.3924 7.95002C1.8149 7.98752 1.5899 8.73002 2.0324 9.09752L5.4224 11.925C5.51715 12.0034 5.58784 12.1069 5.62632 12.2237C5.6648 12.3404 5.66951 12.4657 5.6399 12.585L4.6274 16.575C4.4549 17.25 5.1749 17.7975 5.7524 17.43L9.2699 15.2025C9.36854 15.1398 9.48301 15.1065 9.5999 15.1065C9.71679 15.1065 9.83126 15.1398 9.9299 15.2025Z" fill="#FEC84B"/>
<path d="M29.1306 15.2025L32.9106 17.6025C33.3981 17.91 33.9981 17.4525 33.8556 16.89L32.7606 12.585C32.731 12.4657 32.7357 12.3404 32.7742 12.2237C32.8126 12.1069 32.8833 12.0034 32.9781 11.925L36.3681 9.09752C36.8106 8.73002 36.5856 7.98752 36.0081 7.95002L31.5831 7.66502C31.4623 7.65799 31.3463 7.61595 31.249 7.54403C31.1518 7.4721 31.0776 7.37341 31.0356 7.26002L29.3856 3.10502C29.3419 2.98495 29.2623 2.88122 29.1577 2.80793C29.053 2.73463 28.9284 2.69531 28.8006 2.69531C28.6728 2.69531 28.5481 2.73463 28.4435 2.80793C28.3388 2.88122 28.2593 2.98495 28.2156 3.10502L26.5656 7.26002C26.5235 7.37341 26.4494 7.4721 26.3521 7.54403C26.2549 7.61595 26.1388 7.65799 26.0181 7.66502L21.5931 7.95002C21.0156 7.98752 20.7906 8.73002 21.2331 9.09752L24.6231 11.925C24.7178 12.0034 24.7885 12.1069 24.827 12.2237C24.8655 12.3404 24.8702 12.4657 24.8406 12.585L23.8281 16.575C23.6556 17.25 24.3756 17.7975 24.9531 17.43L28.4706 15.2025C28.5692 15.1398 28.6837 15.1065 28.8006 15.1065C28.9175 15.1065 29.0319 15.1398 29.1306 15.2025Z" fill="#FEC84B"/>
<path d="M48.3298 15.2025L52.1098 17.6025C52.5973 17.91 53.1973 17.4525 53.0548 16.89L51.9598 12.585C51.9302 12.4657 51.9349 12.3404 51.9734 12.2237C52.0119 12.1069 52.0826 12.0034 52.1773 11.925L55.5673 9.09752C56.0098 8.73002 55.7848 7.98752 55.2073 7.95002L50.7823 7.66502C50.6616 7.65799 50.5455 7.61595 50.4483 7.54403C50.351 7.4721 50.2769 7.37341 50.2348 7.26002L48.5848 3.10502C48.5411 2.98495 48.4616 2.88122 48.3569 2.80793C48.2522 2.73463 48.1276 2.69531 47.9998 2.69531C47.872 2.69531 47.7474 2.73463 47.6427 2.80793C47.538 2.88122 47.4585 2.98495 47.4148 3.10502L45.7648 7.26002C45.7227 7.37341 45.6486 7.4721 45.5513 7.54403C45.4541 7.61595 45.338 7.65799 45.2173 7.66502L40.7923 7.95002C40.2148 7.98752 39.9898 8.73002 40.4323 9.09752L43.8223 11.925C43.9171 12.0034 43.9877 12.1069 44.0262 12.2237C44.0647 12.3404 44.0694 12.4657 44.0398 12.585L43.0273 16.575C42.8548 17.25 43.5748 17.7975 44.1523 17.43L47.6698 15.2025C47.7684 15.1398 47.8829 15.1065 47.9998 15.1065C48.1167 15.1065 48.2312 15.1398 48.3298 15.2025Z" fill="#FEC84B"/>
<path d="M67.53 15.2025L71.31 17.6025C71.7975 17.91 72.3975 17.4525 72.255 16.89L71.16 12.585C71.1304 12.4657 71.1351 12.3404 71.1736 12.2237C71.2121 12.1069 71.2827 12.0034 71.3775 11.925L74.7675 9.09752C75.21 8.73002 74.985 7.98752 74.4075 7.95002L69.9825 7.66502C69.8618 7.65799 69.7457 7.61595 69.6485 7.54403C69.5512 7.4721 69.477 7.37341 69.435 7.26002L67.785 3.10502C67.7413 2.98495 67.6618 2.88122 67.5571 2.80793C67.4524 2.73463 67.3278 2.69531 67.2 2.69531C67.0722 2.69531 66.9476 2.73463 66.8429 2.80793C66.7382 2.88122 66.6587 2.98495 66.615 3.10502L64.965 7.26002C64.9229 7.37341 64.8488 7.4721 64.7515 7.54403C64.6543 7.61595 64.5382 7.65799 64.4175 7.66502L59.9925 7.95002C59.415 7.98752 59.19 8.73002 59.6325 9.09752L63.0225 11.925C63.1172 12.0034 63.1879 12.1069 63.2264 12.2237C63.2649 12.3404 63.2696 12.4657 63.24 12.585L62.2275 16.575C62.055 17.25 62.775 17.7975 63.3525 17.43L66.87 15.2025C66.9686 15.1398 67.0831 15.1065 67.2 15.1065C67.3169 15.1065 67.4314 15.1398 67.53 15.2025Z" fill="#FEC84B"/>
<path d="M86.7297 15.2025L90.5097 17.6025C90.9972 17.91 91.5972 17.4525 91.4547 16.89L90.3597 12.585C90.3301 12.4657 90.3348 12.3404 90.3733 12.2237C90.4118 12.1069 90.4825 12.0034 90.5772 11.925L93.9672 9.09752C94.4097 8.73002 94.1847 7.98752 93.6072 7.95002L89.1822 7.66502C89.0615 7.65799 88.9454 7.61595 88.8482 7.54403C88.7509 7.4721 88.6768 7.37341 88.6347 7.26002L86.9847 3.10502C86.941 2.98495 86.8615 2.88122 86.7568 2.80793C86.6521 2.73463 86.5275 2.69531 86.3997 2.69531C86.2719 2.69531 86.1473 2.73463 86.0426 2.80793C85.9379 2.88122 85.8584 2.98495 85.8147 3.10502L84.1647 7.26002C84.1227 7.37341 84.0485 7.4721 83.9512 7.54403C83.854 7.61595 83.7379 7.65799 83.6172 7.66502L79.1922 7.95002C78.6147 7.98752 78.3897 8.73002 78.8322 9.09752L82.2222 11.925C82.317 12.0034 82.3876 12.1069 82.4261 12.2237C82.4646 12.3404 82.4693 12.4657 82.4397 12.585L81.4272 16.575C81.2547 17.25 81.9747 17.7975 82.5522 17.43L86.0697 15.2025C86.1683 15.1398 86.2828 15.1065 86.3997 15.1065C86.5166 15.1065 86.6311 15.1398 86.7297 15.2025Z" fill="#FEC84B"/>
</svg>
